<?xml version="1.0" encoding="UTF-8"?>
<svg width="114px" height="71px" viewBox="0 0 114 71" version="1.1" xmlns="http://www.w3.org/2000/svg" xmlns:xlink="http://www.w3.org/1999/xlink">
    <title>Combined Shape</title>
    <defs>
        <linearGradient x1="50%" y1="0%" x2="50%" y2="75.1437852%" id="linearGradient-1">
            <stop stop-color="#D2D2D2" offset="0%"></stop>
            <stop stop-color="#D2D2D2" stop-opacity="0" offset="100%"></stop>
        </linearGradient>
    </defs>
    <g id="Page-1" stroke="none" stroke-width="1" fill="none" fill-rule="evenodd">
        <path d="M56.7825648,0 L57.2876413,6.6538292 C57.8851689,6.86007155 58.3139687,7.42340606 58.3139687,8.08602151 C58.3139687,8.66790513 57.9832919,9.17322644 57.4980618,9.42739296 L57.8403309,13.9368409 C58.4298567,14.2911838 58.8237769,14.9333227 58.8237769,15.6666667 C58.8237769,16.2911818 58.5380976,16.8495531 58.0892178,17.2203664 L58.3956561,21.2645334 C59.6711163,23.690487 64.2337379,26.7691742 69.1318111,29.9522349 L69.8876093,30.442686 L71.4232872,31.4382844 L72.1894024,31.9367822 C73.2084743,32.60145 74.2156878,33.265726 75.1846609,33.924709 C78.9359196,36.47588 81.7055491,38.8425653 83.4935493,41.0247652 C85.9400276,38.5031786 89.1865346,37.1985847 91.9320161,35.414321 C92.8300398,34.8307035 93.5370056,33.6835133 94.053276,31.9734595 C93.7508506,31.6536451 93.5648546,31.2186234 93.5648546,30.7393145 C93.5648546,29.9879776 94.0218818,29.3454625 94.6679835,29.0849362 L94.6679835,29.0849362 L94.71318,28.7705116 C94.9677546,26.8921897 95.0959325,24.6410292 95.0977137,22.0170301 L95.0977137,22.0170301 L95.1055272,22.4449747 C95.162075,25.1424685 95.3452745,27.2804857 95.6317434,28.9912171 C96.44115,29.1454102 97.0537819,29.8694261 97.0537819,30.7393145 C97.0537819,31.2944859 96.8042497,31.7902416 96.4124203,32.1160443 C97.1159312,34.0503966 98.0554479,35.0826581 99.1219835,35.8291725 C101.439394,37.4512284 110.25069,42.8484505 110.25069,48.8427265 C110.25069,54.8370025 108.029263,55.6444 108.029263,61.0256539 C108.029263,64.6131565 110.019508,67.1882808 114,68.7510268 L114,68.7510268 L114,94 L82,94 L82,93.999 L32,93.999 L32,94 L0,94 L0,68.7510268 C3.98049162,67.1882808 5.97073742,64.6131565 5.97073742,61.0256539 C5.97073742,55.6444 3.74931028,54.8370025 3.74931028,48.8427265 C3.74931028,42.8484505 12.5606059,37.4512284 14.8780165,35.8291725 C15.9445521,35.0826581 16.8840688,34.0503966 17.5875797,32.1160443 C17.1957503,31.7902416 16.9462181,31.2944859 16.9462181,30.7393145 C16.9462181,29.8694261 17.55885,29.1454102 18.3682566,28.9912171 C18.6547255,27.2804857 18.837925,25.1424685 18.8944728,22.4449747 L18.902,22.039 L18.9049411,22.6159499 C18.9245351,24.9851555 19.0518281,27.036676 19.28682,28.7705116 L19.3320165,29.0849362 C19.9781182,29.3454625 20.4351454,29.9879776 20.4351454,30.7393145 C20.4351454,31.2186234 20.2491494,31.6536451 19.946724,31.9734595 C20.4629944,33.6835133 21.1699602,34.8307035 22.0679839,35.414321 C24.8134654,37.1985847 28.0599724,38.5031786 30.5090751,41.0227891 C32.2945695,38.842464 35.0641607,36.4758254 38.8153391,33.924709 C39.7843122,33.265726 40.7915257,32.60145 41.8105976,31.9367822 L42.5767128,31.4382844 L44.1123907,30.442686 C49.0534919,27.2397411 53.8092845,24.1135569 55.3984976,21.6179851 L55.6710906,17.3605116 C55.1136841,16.9997062 54.7453117,16.3758315 54.7453117,15.6666667 C54.7453117,14.866203 55.2146392,14.1744037 55.8953911,13.8469299 L56.1752606,9.47706952 C55.6337695,9.24367795 55.2551198,8.70868451 55.2551198,8.08602151 C55.2551198,7.39556815 55.7207061,6.81291298 56.3576317,6.62974508 L56.7825648,0 Z" id="Combined-Shape" fill="url(#linearGradient-1)"></path>
    </g>
</svg>